<svg width="20" height="20" viewBox="0 0 20 20" fill="none" xmlns="http://www.w3.org/2000/svg">
<g opacity="0.8">
<rect width="20" height="20" stroke="white"/>
<path d="M3.99446 3.73691C7.97756 3.16094 12.0228 3.16094 16.006 3.73691L16.8586 3.86903L16.943 3.88767C17.3596 4.00197 17.7398 4.22246 18.0453 4.528C18.3127 4.79547 18.5148 5.12014 18.6378 5.47634L18.6856 5.63035L18.6969 5.67817L18.8032 6.21313C19.2985 8.89523 19.2631 11.6502 18.6969 14.3219L18.6856 14.3697C18.5714 14.7864 18.3508 15.1665 18.0453 15.472C17.7779 15.7394 17.4531 15.9415 17.0969 16.0645L16.943 16.1123L16.8586 16.131C12.6012 16.8364 8.26211 16.8803 3.99446 16.2631L3.14176 16.131C3.11354 16.1263 3.08505 16.1199 3.05747 16.1123C2.64077 15.998 2.26066 15.7775 1.95513 15.472C1.68767 15.2046 1.48559 14.8799 1.36261 14.5236L1.31479 14.3697C1.31049 14.354 1.30681 14.3377 1.30344 14.3219C0.699634 11.4722 0.699634 8.52779 1.30344 5.67817L1.31479 5.63035L1.36261 5.47634C1.48559 5.12014 1.68767 4.79547 1.95513 4.528C2.26066 4.22247 2.64077 4.00197 3.05747 3.88767L3.14176 3.86903L3.99446 3.73691ZM16.5328 5.49823C12.2064 4.7876 7.79317 4.78751 3.4668 5.49823C3.33986 5.53825 3.22399 5.60741 3.12961 5.70168C3.03107 5.80021 2.95876 5.92229 2.91968 6.05588C2.37349 8.65661 2.3736 11.3426 2.91968 13.9433C2.95871 14.0772 3.03089 14.1996 3.12961 14.2984C3.22375 14.3923 3.33943 14.4609 3.46598 14.501C7.79268 15.212 12.2061 15.2118 16.5328 14.501C16.6599 14.461 16.7763 14.3927 16.8708 14.2984C16.9695 14.1997 17.0409 14.0771 17.0799 13.9433C17.6261 11.3425 17.6261 8.65669 17.0799 6.05588C17.0408 5.92237 16.9693 5.80015 16.8708 5.70168C16.7762 5.60722 16.66 5.53821 16.5328 5.49823Z" fill="#171A1F"/>
<path d="M7.93581 6.78792C8.19602 6.64059 8.51587 6.6446 8.77225 6.79845L12.9223 9.28843L13.0115 9.35002C13.2082 9.50623 13.3251 9.74502 13.3251 10.0001C13.3251 10.2551 13.2082 10.494 13.0115 10.6501L12.9223 10.7118L8.77225 13.2018C8.51587 13.3556 8.19602 13.3597 7.93581 13.2123C7.67579 13.0649 7.51514 12.789 7.51514 12.4901L7.51514 7.51012L7.52243 7.39907C7.55681 7.14411 7.70836 6.91683 7.93581 6.78792ZM9.17514 11.0238L10.8814 10.0001L9.17514 8.97561L9.17514 11.0238Z" fill="#171A1F"/>
</g>
</svg>
