<svg width="20" height="20" viewBox="0 0 20 20" fill="none" xmlns="http://www.w3.org/2000/svg">
<g opacity="0.8">
<rect width="20" height="20" stroke="white"/>
<g clip-path="url(#clip0_1_807)">
<path d="M17.4701 5.85C17.4701 4.01641 15.9837 2.53 14.1501 2.53L5.85012 2.53C4.01653 2.53 2.53012 4.01641 2.53012 5.85L2.53012 14.15C2.53012 15.9835 4.01653 17.47 5.85012 17.47L14.1501 17.47C15.9837 17.47 17.4701 15.9835 17.4701 14.15L17.4701 5.85ZM19.1301 14.15C19.1301 16.9004 16.9005 19.13 14.1501 19.13L5.85012 19.13C3.09974 19.13 0.870117 16.9004 0.870117 14.15L0.870117 5.85C0.870117 3.09962 3.09974 0.869995 5.85012 0.869995L14.1501 0.869995C16.9005 0.869995 19.1301 3.09962 19.1301 5.85L19.1301 14.15Z" fill="#171A1F"/>
<path d="M8.13173 6.27336C8.90643 5.87141 9.78839 5.72387 10.6517 5.85188L10.8163 5.88025C11.6338 6.03528 12.387 6.43293 12.9772 7.02311C13.6068 7.65272 14.0178 8.46783 14.1484 9.34854L14.1687 9.51072C14.2565 10.3218 14.1037 11.1423 13.7269 11.8686C13.3249 12.6433 12.6885 13.2715 11.9089 13.664C11.1293 14.0563 10.2457 14.1932 9.38402 14.0546C8.52223 13.9159 7.72605 13.5087 7.10881 12.8915C6.49158 12.2742 6.08436 11.4781 5.94568 10.6163C5.80709 9.75458 5.94397 8.87104 6.33636 8.09141C6.72881 7.3118 7.35698 6.67536 8.13173 6.27336ZM10.4086 7.49405C9.89048 7.41722 9.36094 7.50572 8.89606 7.74693C8.43118 7.98815 8.05432 8.37014 7.81885 8.83793C7.58342 9.30571 7.50142 9.83583 7.58461 10.3528C7.66781 10.8699 7.91215 11.3474 8.28249 11.7178C8.65279 12.0881 9.13037 12.3325 9.64746 12.4157C10.1645 12.4989 10.6946 12.4169 11.1624 12.1814C11.6302 11.9459 12.0121 11.5691 12.2533 11.1042C12.4644 10.6975 12.5584 10.2416 12.5273 9.78711L12.5062 9.59173C12.4279 9.06335 12.1812 8.57448 11.8035 8.19678C11.473 7.86631 11.0575 7.63615 10.6047 7.53133L10.4086 7.49405Z" fill="#171A1F"/>
<path d="M14.5984 4.58997L14.6835 4.59402C15.1019 4.63654 15.4284 4.99023 15.4284 5.41997C15.4284 5.84971 15.1019 6.20339 14.6835 6.24592L14.5984 6.24997H14.5903C14.1318 6.24997 13.7603 5.87836 13.7603 5.41997C13.7603 4.96157 14.1318 4.58997 14.5903 4.58997H14.5984Z" fill="#171A1F"/>
</g>
</g>
<defs>
<clipPath id="clip0_1_807">
<rect width="20" height="20" fill="white"/>
</clipPath>
</defs>
</svg>
