<svg width="20" height="20" viewBox="0 0 20 20" fill="none" xmlns="http://www.w3.org/2000/svg">
<g opacity="0.8">
<rect width="20" height="20" stroke="white"/>
<path d="M10.8349 5.85C10.8349 5.40974 11.0099 4.98763 11.3212 4.67633C11.6325 4.36502 12.0547 4.19 12.4949 4.19H14.1549V2.53L12.4949 2.53C11.6144 2.53 10.7702 2.88003 10.1476 3.50266C9.52491 4.12527 9.1749 4.96947 9.1749 5.85L9.1749 8.33999C9.1749 8.7984 8.80331 9.17 8.3449 9.17H6.6849L6.6849 10.83H8.3449C8.80331 10.83 9.1749 11.2016 9.1749 11.66V17.47H10.8349V11.66C10.8349 11.2016 11.2065 10.83 11.6649 10.83H13.5073L13.9223 9.17H11.6649C11.2065 9.17 10.8349 8.7984 10.8349 8.33999L10.8349 5.85ZM12.4949 7.50999L14.9849 7.50999C15.2405 7.50999 15.4817 7.6279 15.639 7.82935C15.7962 8.03075 15.8517 8.29313 15.7898 8.54102L14.9598 11.861C14.8674 12.2305 14.5358 12.49 14.1549 12.49H12.4949V18.3C12.4949 18.7584 12.1233 19.13 11.6649 19.13H8.3449C7.88651 19.13 7.5149 18.7584 7.5149 18.3L7.5149 12.49H5.8549C5.39651 12.49 5.0249 12.1184 5.0249 11.66L5.0249 8.33999L5.02895 8.25489C5.07156 7.83646 5.42523 7.50999 5.8549 7.50999L7.5149 7.50999V5.85C7.5149 4.52922 8.03995 3.26291 8.97388 2.32898C9.90779 1.39504 11.1741 0.869995 12.4949 0.869995L14.9849 0.869995L15.07 0.874045C15.4885 0.916649 15.8149 1.27032 15.8149 1.7L15.8149 5.02C15.8149 5.47839 15.4433 5.85 14.9849 5.85L12.4949 5.85L12.4949 7.50999Z" fill="#171A1F"/>
</g>
</svg>
