<svg width="16" height="16" viewBox="0 0 16 16" fill="none" xmlns="http://www.w3.org/2000/svg">
<g clip-path="url(#clip0_1_944)">
<path d="M8.6651 4.65C8.6651 4.29461 8.8064 3.95388 9.05765 3.70258C9.30897 3.45128 9.64973 3.31 10.0051 3.31L11.3451 3.31V1.97L10.0051 1.97C9.29429 1.97 8.61284 2.25256 8.11027 2.75516C7.60764 3.25775 7.3251 3.93922 7.3251 4.65L7.3251 6.66C7.3251 7.03004 7.02514 7.33 6.6551 7.33H5.3151V8.67L6.6551 8.67C7.02514 8.67 7.3251 8.96996 7.3251 9.34L7.3251 14.03H8.6651L8.6651 9.34C8.6651 8.96996 8.96506 8.67 9.3351 8.67L10.8223 8.67L11.1573 7.33L9.3351 7.33C8.96506 7.33 8.6651 7.03004 8.6651 6.66L8.6651 4.65ZM10.0051 5.99L12.0151 5.99C12.2214 5.99 12.4162 6.08518 12.5431 6.2478C12.67 6.41037 12.7148 6.62217 12.6648 6.82228L11.9948 9.50228C11.9202 9.80056 11.6526 10.01 11.3451 10.01H10.0051L10.0051 14.7C10.0051 15.07 9.70514 15.37 9.3351 15.37H6.6551C6.28507 15.37 5.9851 15.07 5.9851 14.7L5.9851 10.01L4.6451 10.01C4.27507 10.01 3.9751 9.71004 3.9751 9.34L3.9751 6.66L3.97837 6.5913C4.01276 6.25353 4.29825 5.99 4.6451 5.99L5.9851 5.99L5.9851 4.65C5.9851 3.58383 6.40893 2.56163 7.16282 1.80773C7.91671 1.05384 8.93893 0.630001 10.0051 0.630001L12.0151 0.630001L12.0838 0.633271C12.4216 0.667662 12.6851 0.953155 12.6851 1.3L12.6851 3.98C12.6851 4.35003 12.3851 4.65 12.0151 4.65L10.0051 4.65L10.0051 5.99Z" fill="#171A1F"/>
</g>
<defs>
<clipPath id="clip0_1_944">
<rect width="16" height="16" fill="white"/>
</clipPath>
</defs>
</svg>
