<svg width="22" height="22" viewBox="0 0 22 22" fill="none" xmlns="http://www.w3.org/2000/svg">
<path d="M16.5199 1.8C16.8275 1.8 17.1148 1.95374 17.2853 2.20969L20.9653 7.72969C21.1839 8.05755 21.1695 8.48822 20.9294 8.80063L11.7294 20.7606C11.5553 20.9871 11.2855 21.12 10.9999 21.12C10.7142 21.12 10.4445 20.9871 10.2703 20.7606L1.07037 8.80063C0.830284 8.48822 0.815855 8.05755 1.03443 7.72969L4.71443 2.20969L4.78361 2.11895C4.95711 1.91792 5.21064 1.8 5.4799 1.8L16.5199 1.8ZM2.93103 8.20137L10.9999 18.6906L19.0678 8.20137L16.0276 3.64L5.97224 3.64L2.93103 8.20137Z" fill="white"/>
<path d="M11.5086 1.89703C11.9346 1.68401 12.4467 1.83289 12.6963 2.22676L12.743 2.30852L15.503 7.82852C15.5957 8.01371 15.6225 8.22393 15.5812 8.42509L15.5596 8.51043L11.8796 20.4705C11.7608 20.8564 11.404 21.12 11.0001 21.12C10.5962 21.12 10.2392 20.8564 10.1205 20.4705L6.4405 8.51043C6.37098 8.28435 6.39132 8.04008 6.49709 7.82852L9.25713 2.30852L9.30378 2.22676C9.55346 1.83289 10.0655 1.68401 10.4916 1.89703C10.9176 2.11008 11.1061 2.60922 10.9407 3.04524L10.903 3.13149L8.30745 8.32087L11.0001 17.0707L13.6918 8.32087L11.0971 3.13149L11.0593 3.04524C10.894 2.60922 11.0825 2.11008 11.5086 1.89703Z" fill="white"/>
<path d="M20.1999 7.33C20.708 7.33 21.1199 7.7419 21.1199 8.25C21.1199 8.7581 20.708 9.17 20.1999 9.17L1.79988 9.17C1.29179 9.17 0.879883 8.7581 0.879883 8.25C0.879883 7.7419 1.29179 7.33 1.79988 7.33L20.1999 7.33Z" fill="white"/>
</svg>
