<svg width="20" height="20" viewBox="0 0 20 20" fill="none" xmlns="http://www.w3.org/2000/svg">
<path d="M17.48 11.665C17.48 10.5643 17.0424 9.50909 16.2642 8.73079C15.4859 7.95255 14.4307 7.51501 13.33 7.51501C12.2294 7.51501 11.1741 7.95255 10.3958 8.73079C9.6176 9.50909 9.18002 10.5643 9.18002 11.665L9.18002 16.645H10.84L10.84 11.665C10.84 11.0046 11.1025 10.3715 11.5695 9.9045C12.0365 9.43754 12.6696 9.17501 13.33 9.17501C13.9905 9.17501 14.6236 9.43754 15.0905 9.9045C15.5575 10.3715 15.82 11.0046 15.82 11.665L15.82 16.645L17.48 16.645L17.48 11.665ZM19.14 17.475C19.14 17.9334 18.7684 18.305 18.31 18.305L14.99 18.305C14.5316 18.305 14.16 17.9334 14.16 17.475L14.16 11.665C14.16 11.4449 14.0725 11.2338 13.9168 11.0782C13.7612 10.9225 13.5501 10.835 13.33 10.835C13.1099 10.835 12.8988 10.9225 12.7432 11.0782C12.5875 11.2338 12.5 11.4449 12.5 11.665L12.5 17.475C12.5 17.9334 12.1284 18.305 11.67 18.305H8.35002C7.89163 18.305 7.52002 17.9334 7.52002 17.475L7.52002 11.665C7.52002 10.1241 8.13177 8.64597 9.22135 7.55634C10.311 6.46676 11.7891 5.85501 13.33 5.85501C14.8709 5.85501 16.3491 6.46676 17.4387 7.55634C18.5283 8.64597 19.14 10.1241 19.14 11.665L19.14 17.475Z" fill="#171A1F"/>
<path d="M4.98984 6.69L5.07495 6.69405C5.49338 6.73666 5.81984 7.09033 5.81984 7.52L5.81984 17.48C5.81984 17.9384 5.44824 18.31 4.98984 18.31H1.66984C1.21145 18.31 0.839844 17.9384 0.839844 17.48L0.839844 7.52L0.843894 7.43489C0.886498 7.01647 1.24017 6.69 1.66984 6.69L4.98984 6.69ZM2.49984 16.65H4.15984L4.15984 8.35L2.49984 8.35L2.49984 16.65Z" fill="#171A1F"/>
<path d="M4.15984 3.33C4.15984 2.8716 3.78824 2.5 3.32984 2.5C2.87145 2.5 2.49984 2.8716 2.49984 3.33C2.49984 3.78839 2.87145 4.16 3.32984 4.16C3.78824 4.16 4.15984 3.78839 4.15984 3.33ZM5.81984 3.33C5.81984 4.70518 4.70503 5.82 3.32984 5.82C1.95466 5.82 0.839844 4.70518 0.839844 3.33C0.839844 1.95481 1.95466 0.839996 3.32984 0.839996C4.70503 0.839996 5.81984 1.95481 5.81984 3.33Z" fill="#171A1F"/>
</svg>
