<svg width="16" height="16" viewBox="0 0 16 16" fill="none" xmlns="http://www.w3.org/2000/svg">
<g clip-path="url(#clip0_1_966)">
<path d="M14.02 9.335C14.02 8.44651 13.6668 7.59468 13.0386 6.96642C12.4103 6.3382 11.5585 5.985 10.67 5.985C9.78149 5.985 8.92966 6.3382 8.3014 6.96642C7.6732 7.59468 7.31998 8.44651 7.31998 9.335L7.31998 13.355L8.65998 13.355L8.65998 9.335C8.65998 8.80188 8.8719 8.29081 9.24884 7.91386C9.62579 7.53692 10.1369 7.325 10.67 7.325C11.2031 7.325 11.7142 7.53692 12.0911 7.91386C12.4681 8.29081 12.68 8.80188 12.68 9.335V13.355H14.02L14.02 9.335ZM15.36 14.025C15.36 14.395 15.06 14.695 14.69 14.695H12.01C11.6399 14.695 11.34 14.395 11.34 14.025V9.335C11.34 9.15732 11.2694 8.98694 11.1437 8.86131C11.018 8.73562 10.8477 8.665 10.67 8.665C10.4923 8.665 10.3219 8.73562 10.1963 8.86131C10.0706 8.98694 9.99998 9.15732 9.99998 9.335V14.025C9.99998 14.395 9.70002 14.695 9.32998 14.695L6.64998 14.695C6.27995 14.695 5.97998 14.395 5.97998 14.025L5.97998 9.335C5.97998 8.09115 6.4738 6.89794 7.35335 6.01837C8.23292 5.13882 9.42613 4.645 10.67 4.645C11.9138 4.645 13.107 5.13882 13.9866 6.01837C14.8662 6.89794 15.36 8.09115 15.36 9.335L15.36 14.025Z" fill="#171A1F"/>
<path d="M4.01016 5.31L4.07886 5.31327C4.41663 5.34766 4.68016 5.63315 4.68016 5.98L4.68016 14.02C4.68016 14.39 4.38018 14.69 4.01016 14.69L1.33016 14.69C0.960129 14.69 0.660156 14.39 0.660156 14.02L0.660156 5.98L0.663426 5.9113C0.697817 5.57353 0.983311 5.31 1.33016 5.31L4.01016 5.31ZM2.00016 13.35L3.34016 13.35L3.34016 6.65L2.00016 6.65L2.00016 13.35Z" fill="#171A1F"/>
<path d="M3.34016 2.67C3.34016 2.29997 3.04018 2 2.67016 2C2.30013 2 2.00016 2.29997 2.00016 2.67C2.00016 3.04003 2.30013 3.34 2.67016 3.34C3.04018 3.34 3.34016 3.04003 3.34016 2.67ZM4.68016 2.67C4.68016 3.78009 3.78025 4.68 2.67016 4.68C1.56007 4.68 0.660156 3.78009 0.660156 2.67C0.660156 1.55991 1.56007 0.66 2.67016 0.66C3.78025 0.66 4.68016 1.55991 4.68016 2.67Z" fill="#171A1F"/>
</g>
<defs>
<clipPath id="clip0_1_966">
<rect width="16" height="16" fill="white"/>
</clipPath>
</defs>
</svg>
