<svg width="24" height="24" viewBox="0 0 24 24" fill="none" xmlns="http://www.w3.org/2000/svg">
<path d="M7.10973 0.999882C7.83419 0.995108 8.53585 1.25297 9.08532 1.72546C9.56819 2.14074 9.90531 2.69696 10.0501 3.31239L10.0999 3.57996L10.1009 3.58874L10.1498 3.92078C10.2736 4.69086 10.4727 5.44729 10.7455 6.1786L10.8138 6.38172C10.9557 6.86067 10.9761 7.36851 10.8714 7.85926C10.7518 8.42015 10.4739 8.93484 10.0706 9.34266L10.0667 9.34754L9.35094 10.0624C10.5268 11.9073 12.0921 13.4714 13.9369 14.6474L14.6566 13.9286L14.8148 13.7841C15.1942 13.4591 15.6492 13.2325 16.14 13.1278C16.6999 13.0084 17.2826 13.052 17.8187 13.2528C18.5507 13.526 19.3085 13.7266 20.0794 13.8505L20.4105 13.8983L20.4193 13.8993C21.1478 14.0021 21.8137 14.3692 22.2894 14.9306C22.7597 15.4856 23.0104 16.1929 22.9984 16.9198L22.9994 19.9159L22.9964 20.0722C22.9789 20.4364 22.8948 20.7948 22.7484 21.1298C22.581 21.5125 22.3355 21.8562 22.0277 22.1386C21.7199 22.4209 21.3569 22.6366 20.9613 22.7704C20.6151 22.8875 20.2504 22.9395 19.8861 22.9257L19.7298 22.9159C19.7238 22.9154 19.7173 22.9146 19.7113 22.914C16.4789 22.5627 13.3739 21.4584 10.6458 19.6894C8.10937 18.0759 5.95842 15.9239 4.34606 13.3866C2.57364 10.648 1.46991 7.53 1.12536 4.28601L1.1234 4.2704C1.08593 3.8557 1.13605 3.43746 1.26891 3.04286C1.40184 2.64819 1.61511 2.28501 1.89586 1.97743C2.17666 1.66982 2.51879 1.42402 2.89977 1.25574C3.28066 1.08753 3.69237 1.00029 4.10876 0.999882L7.10973 0.999882ZM4.00719 3.00574C3.90402 3.01658 3.80267 3.04276 3.70739 3.08485C3.58042 3.14094 3.46699 3.22354 3.3734 3.32606C3.27989 3.42849 3.20874 3.54912 3.16442 3.68055C3.1218 3.80709 3.10472 3.94106 3.11461 4.07411L3.18102 4.62293C3.52856 7.1777 4.39815 9.63356 5.73571 11.8378L6.02868 12.3065L6.03356 12.3134L6.31286 12.7392C7.64014 14.7062 9.33308 16.4001 11.3001 17.7274L11.7259 18.0058L11.7337 18.0106L12.2005 18.3036C14.5468 19.7293 17.179 20.6244 19.9124 20.9237C20.0503 20.9358 20.1896 20.9202 20.3206 20.8759C20.4524 20.8313 20.5736 20.759 20.6761 20.6649C20.7786 20.5709 20.8606 20.4565 20.9164 20.329C20.9721 20.2014 20.9999 20.063 20.9994 19.9237V16.9198L21.0003 16.8954C21.0064 16.6502 20.9216 16.4107 20.763 16.2235C20.6064 16.0388 20.3881 15.9166 20.1488 15.8808C19.1141 15.7443 18.0983 15.4917 17.1205 15.1269L17.1175 15.1259C16.9388 15.0588 16.7446 15.0442 16.558 15.0839C16.371 15.1238 16.1988 15.217 16.0628 15.3515L14.7972 16.6171C14.4789 16.9354 13.9864 17.0017 13.5951 16.7792C10.9352 15.2667 8.73254 13.0641 7.22008 10.4042C6.99774 10.0129 7.06492 9.52125 7.38317 9.203L8.64782 7.93641C8.78224 7.80048 8.87551 7.62923 8.9154 7.44227C8.95527 7.25529 8.94067 7.06069 8.8734 6.88172L8.87243 6.87977C8.50862 5.90482 8.25628 4.89179 8.1195 3.86023L8.1029 3.7704C8.05459 3.56549 7.94235 3.38039 7.78161 3.24206C7.62064 3.10363 7.42039 3.01983 7.21032 3.00282L7.1195 2.99989L4.11071 2.99989L4.00719 3.00574Z" fill="#18386E"/>
</svg>
