<svg width="12" height="12" viewBox="0 0 12 12" fill="none" xmlns="http://www.w3.org/2000/svg">
<g clip-path="url(#clip0_1_835)">
<path d="M13.9395 11.1672L0.740172 11.1672C0.219473 11.1672 -0.202637 11.5893 -0.202637 12.11V12.11C-0.202637 12.6307 0.219473 13.0528 0.740172 13.0528L13.9395 13.0528C14.4602 13.0528 14.8823 12.6307 14.8823 12.11C14.8823 11.5893 14.4602 11.1672 13.9395 11.1672Z" fill="#DEE1E6"/>
<path d="M11.7281 11.1672L6.07123 11.1672C5.55053 11.1672 5.12842 11.5893 5.12842 12.11V12.11C5.12842 12.6307 5.55053 13.0528 6.07123 13.0528L11.7281 13.0528C12.2488 13.0528 12.6709 12.6307 12.6709 12.11C12.6709 11.5893 12.2488 11.1672 11.7281 11.1672Z" fill="#DEE1E6"/>
</g>
<defs>
<clipPath id="clip0_1_835">
<rect width="12" height="12" fill="white"/>
</clipPath>
</defs>
</svg>
