<svg width="20" height="20" viewBox="0 0 20 20" fill="none" xmlns="http://www.w3.org/2000/svg">
<path d="M3.99446 3.73685C7.97756 3.16088 12.0228 3.16088 16.006 3.73685L16.8586 3.86897L16.943 3.88761C17.3596 4.00191 17.7398 4.2224 18.0453 4.52794C18.3127 4.79541 18.5148 5.12008 18.6378 5.47628L18.6856 5.63029L18.6969 5.67811L18.8032 6.21307C19.2985 8.89517 19.2631 11.6501 18.6969 14.3218L18.6856 14.3696C18.5714 14.7863 18.3508 15.1664 18.0453 15.4719C17.7779 15.7394 17.4531 15.9415 17.0969 16.0645L16.943 16.1123L16.8586 16.1309C12.6012 16.8364 8.26211 16.8803 3.99446 16.263L3.14176 16.1309C3.11354 16.1262 3.08505 16.1198 3.05747 16.1123C2.64077 15.998 2.26066 15.7774 1.95513 15.4719C1.68767 15.2045 1.48559 14.8798 1.36261 14.5236L1.31479 14.3696C1.31049 14.3539 1.30681 14.3377 1.30344 14.3218C0.699634 11.4722 0.699634 8.52773 1.30344 5.67811L1.31479 5.63029L1.36261 5.47628C1.48559 5.12008 1.68767 4.79541 1.95513 4.52794C2.26066 4.22241 2.64077 4.00191 3.05747 3.88761L3.14176 3.86897L3.99446 3.73685ZM16.5328 5.49817C12.2064 4.78754 7.79317 4.78745 3.4668 5.49817C3.33986 5.53819 3.22399 5.60734 3.12961 5.70162C3.03107 5.80014 2.95876 5.92223 2.91968 6.05582C2.37349 8.65655 2.3736 11.3425 2.91968 13.9432C2.95871 14.0771 3.03089 14.1995 3.12961 14.2983C3.22375 14.3923 3.33943 14.4608 3.46598 14.5009C7.79268 15.2119 12.2061 15.2117 16.5328 14.5009C16.6599 14.4609 16.7763 14.3927 16.8708 14.2983C16.9695 14.1996 17.0409 14.077 17.0799 13.9432C17.6261 11.3424 17.6261 8.65663 17.0799 6.05582C17.0408 5.92231 16.9693 5.80009 16.8708 5.70162C16.7762 5.60716 16.66 5.53815 16.5328 5.49817Z" fill="#171A1F"/>
<path d="M7.93581 6.78783C8.19602 6.64049 8.51587 6.64451 8.77225 6.79836L12.9223 9.28834L13.0115 9.34993C13.2082 9.50613 13.3251 9.74493 13.3251 9.99999C13.3251 10.255 13.2082 10.4939 13.0115 10.65L12.9223 10.7117L8.77225 13.2017C8.51587 13.3555 8.19602 13.3596 7.93581 13.2123C7.67579 13.0648 7.51514 12.789 7.51514 12.49L7.51514 7.51003L7.52243 7.39898C7.55681 7.14402 7.70836 6.91674 7.93581 6.78783ZM9.17514 11.0237L10.8814 9.99999L9.17514 8.97552V11.0237Z" fill="#171A1F"/>
</svg>
