<svg width="16" height="16" viewBox="0 0 16 16" fill="none" xmlns="http://www.w3.org/2000/svg">
<path d="M3.15208 2.94421C6.36736 2.47927 9.63281 2.47927 12.8481 2.94421L13.5364 3.05086L13.6045 3.06591C13.9408 3.15818 14.2477 3.33616 14.4943 3.5828C14.7102 3.79871 14.8733 4.0608 14.9726 4.34833L15.0112 4.47265L15.0203 4.51126L15.1061 4.94309C15.506 7.10816 15.4774 9.33203 15.0203 11.4887L15.0112 11.5273C14.919 11.8637 14.741 12.1705 14.4943 12.4171C14.2785 12.633 14.0163 12.7961 13.7288 12.8954L13.6045 12.934L13.5364 12.9491C10.0997 13.5185 6.59706 13.554 3.15208 13.0557L2.46376 12.9491C2.44098 12.9453 2.41799 12.9401 2.39571 12.934C2.05935 12.8418 1.75251 12.6637 1.50587 12.4171C1.28998 12.2012 1.12686 11.9391 1.02758 11.6516L0.988976 11.5273C0.985505 11.5146 0.982537 11.5015 0.979817 11.4887C0.492405 9.18838 0.492405 6.81155 0.979817 4.51126L0.988976 4.47265L1.02758 4.34833C1.12686 4.0608 1.28998 3.79871 1.50587 3.5828C1.75251 3.33617 2.05935 3.15818 2.39571 3.06591L2.46376 3.05086L3.15208 2.94421ZM13.2734 4.366C9.78101 3.79236 6.21851 3.79229 2.72614 4.366C2.62367 4.39831 2.53014 4.45413 2.45395 4.53023C2.37441 4.60977 2.31604 4.70832 2.28449 4.81615C1.84359 6.91554 1.84367 9.08373 2.28449 11.1831C2.316 11.2912 2.37426 11.39 2.45395 11.4697C2.52994 11.5456 2.62333 11.6009 2.72548 11.6333C6.21812 12.2072 9.78074 12.2071 13.2734 11.6333C13.376 11.601 13.47 11.5459 13.5462 11.4697C13.6259 11.3901 13.6836 11.2911 13.7151 11.1831C14.1559 9.08366 14.156 6.91561 13.7151 4.81615C13.6835 4.70838 13.6257 4.60972 13.5462 4.53023C13.4699 4.45398 13.3761 4.39827 13.2734 4.366Z" fill="#171A1F"/>
<path d="M6.32445 5.40705C6.53449 5.28812 6.79268 5.29136 6.99965 5.41556L10.3496 7.42554L10.4217 7.47526C10.5805 7.60135 10.6749 7.79411 10.6749 8C10.6749 8.20589 10.5805 8.39872 10.4217 8.52474L10.3496 8.57453L6.99965 10.5845C6.79268 10.7087 6.53449 10.712 6.32445 10.593C6.11455 10.474 5.98486 10.2513 5.98486 10.01L5.98486 5.99003L5.99075 5.90039C6.0185 5.69458 6.14084 5.51112 6.32445 5.40705ZM7.32486 8.82638L8.70218 8L7.32486 7.17302L7.32486 8.82638Z" fill="#171A1F"/>
</svg>
